<svg width="51" height="54" viewBox="0 0 51 54" fill="none" xmlns="http://www.w3.org/2000/svg">
<rect x="0.5" y="0.5" width="50" height="53" rx="14.5" fill="#131316" stroke="#18181B"/>
<path d="M41.8946 32.9068L40.9945 35.5834C40.7098 36.4306 39.9075 37 38.998 37H12.002C11.0927 37 10.2905 36.4306 10.0055 35.5836L9.10539 32.9066C8.8946 32.2798 9.00394 31.5864 9.39812 31.0515C9.7923 30.5167 10.4293 30.1973 11.1021 30.1973H14.5647V25.4342C14.5647 20.2321 18.8778 16 24.1794 16H26.6916C31.9932 16 36.3062 20.2321 36.3062 25.4342V30.1973H39.8981C40.5708 30.1973 41.2077 30.5167 41.602 31.0515C41.9961 31.5864 42.1054 32.2799 41.8946 32.9068Z" fill="white"/>
</svg>
