<svg width="13" height="13" viewBox="0 0 13 13" fill="none" xmlns="http://www.w3.org/2000/svg">
<g clip-path="url(#clip0_2051_23)">
<path d="M11.7217 1.97168L11.0283 1.27835C10.9674 1.21677 10.8949 1.16789 10.8149 1.13452C10.7349 1.10116 10.6492 1.08398 10.5625 1.08398C10.4759 1.08398 10.3901 1.10116 10.3101 1.13452C10.2302 1.16789 10.1576 1.21677 10.0967 1.27835L1.27835 10.0967C1.21677 10.1576 1.16789 10.2302 1.13452 10.3101C1.10116 10.3901 1.08398 10.4759 1.08398 10.5625C1.08398 10.6492 1.10116 10.7349 1.13452 10.8149C1.16789 10.8949 1.21677 10.9674 1.27835 11.0283L1.97168 11.7217C2.03225 11.7839 2.10468 11.8334 2.18469 11.8672C2.2647 11.901 2.35067 11.9184 2.43751 11.9184C2.52436 11.9184 2.61033 11.901 2.69034 11.8672C2.77035 11.8334 2.84278 11.7839 2.90335 11.7217L11.7217 2.90335C11.7839 2.84278 11.8334 2.77035 11.8672 2.69034C11.901 2.61033 11.9184 2.52436 11.9184 2.43751C11.9184 2.35067 11.901 2.2647 11.8672 2.18469C11.8334 2.10468 11.7839 2.03225 11.7217 1.97168Z" stroke="#989898" stroke-linecap="round" stroke-linejoin="round"/>
<path d="M7.58325 3.79175L9.20825 5.41675" stroke="#989898" stroke-linecap="round" stroke-linejoin="round"/>
<path d="M2.70825 3.25V5.41667" stroke="#989898" stroke-linecap="round" stroke-linejoin="round"/>
<path d="M10.2917 7.58325V9.74992" stroke="#989898" stroke-linecap="round" stroke-linejoin="round"/>
<path d="M5.41675 1.08325V2.16659" stroke="#989898" stroke-linecap="round" stroke-linejoin="round"/>
<path d="M3.79167 4.33325H1.625" stroke="#989898" stroke-linecap="round" stroke-linejoin="round"/>
<path d="M11.3749 8.66675H9.20825" stroke="#989898" stroke-linecap="round" stroke-linejoin="round"/>
<path d="M5.95833 1.625H4.875" stroke="#989898" stroke-linecap="round" stroke-linejoin="round"/>
</g>
<defs>
<clipPath id="clip0_2051_23">
<rect width="13" height="13" fill="white"/>
</clipPath>
</defs>
</svg>
