<svg width="12" height="12" viewBox="0 0 12 12" fill="none" xmlns="http://www.w3.org/2000/svg">
<path d="M6 8.5C6.27614 8.5 6.5 8.27614 6.5 8C6.5 7.72386 6.27614 7.5 6 7.5C5.72386 7.5 5.5 7.72386 5.5 8C5.5 8.27614 5.72386 8.5 6 8.5Z" stroke="#6E6B6B" stroke-linecap="round" stroke-linejoin="round"/>
<path d="M9.5 5H2.5C1.94772 5 1.5 5.44772 1.5 6V10C1.5 10.5523 1.94772 11 2.5 11H9.5C10.0523 11 10.5 10.5523 10.5 10V6C10.5 5.44772 10.0523 5 9.5 5Z" stroke="#6E6B6B" stroke-linecap="round" stroke-linejoin="round"/>
<path d="M3.5 4.99989V3.49989C3.50002 2.94958 3.68163 2.41464 4.01665 1.97806C4.35167 1.54147 4.82138 1.22762 5.35294 1.08519C5.88451 0.942755 6.44822 0.979693 6.95665 1.19028C7.46508 1.40086 7.88982 1.77332 8.165 2.24989" stroke="#6E6B6B" stroke-linecap="round" stroke-linejoin="round"/>
</svg>
