<svg width="12" height="13" viewBox="0 0 12 13" fill="none" xmlns="http://www.w3.org/2000/svg">
<path d="M1 2.25037C0.999935 2.03043 1.0579 1.81436 1.16805 1.62399C1.2782 1.43362 1.43663 1.27568 1.62734 1.16612C1.81806 1.05656 2.0343 0.999261 2.25424 1.00001C2.47418 1.00075 2.69004 1.05952 2.88 1.17037L10.3781 5.54412C10.5674 5.65392 10.7244 5.81146 10.8337 6.001C10.943 6.19054 11.0006 6.40543 11.0008 6.62421C11.001 6.84298 10.9437 7.05798 10.8348 7.2477C10.7259 7.43743 10.569 7.59524 10.38 7.70537L2.88 12.0804C2.69004 12.1912 2.47418 12.25 2.25424 12.2507C2.0343 12.2515 1.81806 12.1942 1.62734 12.0846C1.43663 11.9751 1.2782 11.8171 1.16805 11.6268C1.0579 11.4364 0.999935 11.2203 1 11.0004V2.25037Z" stroke="#6E6B6B" stroke-linecap="round" stroke-linejoin="round"/>
</svg>
