<svg width="15" height="14" viewBox="0 0 15 14" fill="none" xmlns="http://www.w3.org/2000/svg">
<path d="M7.14446 0.216469C7.17732 0.151476 7.22809 0.0967679 7.29103 0.0585182C7.35397 0.0202685 7.42659 0 7.50067 0C7.57476 0 7.64737 0.0202685 7.71032 0.0585182C7.77326 0.0967679 7.82403 0.151476 7.85689 0.216469L9.58924 3.65112C9.70336 3.87719 9.87182 4.07277 10.0802 4.22109C10.2885 4.3694 10.5305 4.46601 10.7854 4.50263L14.6595 5.05758C14.7329 5.06799 14.8019 5.0983 14.8586 5.14508C14.9154 5.19186 14.9576 5.25324 14.9805 5.32229C15.0035 5.39133 15.0062 5.46528 14.9884 5.53577C14.9707 5.60626 14.9331 5.67048 14.88 5.72117L12.0783 8.39167C11.8935 8.56792 11.7552 8.78548 11.6754 9.02562C11.5956 9.26577 11.5766 9.5213 11.6201 9.77023L12.2815 13.5433C12.2945 13.6151 12.2865 13.689 12.2586 13.7567C12.2307 13.8243 12.1839 13.8829 12.1237 13.9257C12.0634 13.9686 11.992 13.994 11.9177 13.9991C11.8433 14.0041 11.7691 13.9886 11.7033 13.9544L8.24011 12.1721C8.01192 12.0548 7.75804 11.9935 7.5003 11.9935C7.24256 11.9935 6.98868 12.0548 6.76049 12.1721L3.29805 13.9544C3.23231 13.9884 3.15811 14.0038 3.08391 13.9986C3.00971 13.9934 2.93847 13.968 2.87831 13.9252C2.81815 13.8823 2.77147 13.8238 2.74359 13.7563C2.71571 13.6888 2.70775 13.615 2.7206 13.5433L3.38129 9.77096C3.42494 9.52192 3.40603 9.26622 3.3262 9.02593C3.24638 8.78563 3.10803 8.56796 2.92309 8.39167L0.121339 5.7219C0.067789 5.67128 0.029842 5.60695 0.0118205 5.53624C-0.00620092 5.46553 -0.00357221 5.3913 0.0194071 5.32198C0.0423864 5.25267 0.0847924 5.19106 0.141795 5.14419C0.198797 5.09731 0.268103 5.06705 0.341819 5.05685L4.21522 4.50263C4.47039 4.4663 4.71272 4.36981 4.92134 4.22148C5.12997 4.07315 5.29865 3.87741 5.41286 3.65112L7.14446 0.216469Z" fill="#817676"/>
</svg>
