<svg width="15" height="15" viewBox="0 0 15 15" fill="none" xmlns="http://www.w3.org/2000/svg">
<path d="M7.20327 1.43431C7.23066 1.37897 7.27297 1.33239 7.32543 1.29982C7.37789 1.26726 7.4384 1.25 7.50015 1.25C7.56189 1.25 7.62241 1.26726 7.67487 1.29982C7.72732 1.33239 7.76963 1.37897 7.79702 1.43431L9.24077 4.35868C9.33588 4.55116 9.47628 4.71769 9.64991 4.84397C9.82355 4.97025 10.0252 5.0525 10.2376 5.08368L13.4664 5.55618C13.5276 5.56505 13.5851 5.59085 13.6323 5.63068C13.6796 5.67051 13.7148 5.72278 13.7339 5.78156C13.753 5.84035 13.7553 5.90331 13.7405 5.96333C13.7257 6.02335 13.6944 6.07803 13.6501 6.12118L11.3151 8.39493C11.1612 8.545 11.0459 8.73023 10.9794 8.9347C10.9129 9.13917 10.8971 9.35674 10.9333 9.56868L11.4845 12.7812C11.4953 12.8423 11.4887 12.9053 11.4655 12.9629C11.4422 13.0204 11.4032 13.0703 11.353 13.1068C11.3027 13.1433 11.2433 13.1649 11.1813 13.1692C11.1194 13.1736 11.0575 13.1604 11.0026 13.1312L8.1164 11.6137C7.92622 11.5138 7.71464 11.4617 7.49984 11.4617C7.28504 11.4617 7.07345 11.5138 6.88327 11.6137L3.99765 13.1312C3.94286 13.1602 3.88102 13.1732 3.81918 13.1688C3.75734 13.1644 3.69797 13.1428 3.64783 13.1063C3.59769 13.0699 3.55879 13.0201 3.53556 12.9626C3.51232 12.9051 3.50568 12.8422 3.5164 12.7812L4.06702 9.56931C4.1034 9.35727 4.08764 9.13956 4.02111 8.93496C3.95458 8.73037 3.83928 8.54503 3.68515 8.39493L1.35015 6.12181C1.30552 6.0787 1.27389 6.02393 1.25887 5.96373C1.24386 5.90353 1.24605 5.84032 1.2652 5.7813C1.28435 5.72229 1.31969 5.66983 1.3672 5.62992C1.4147 5.59001 1.47246 5.56425 1.5339 5.55556L4.76202 5.08368C4.97468 5.05275 5.17664 4.97059 5.35051 4.8443C5.52438 4.71801 5.66496 4.55135 5.76015 4.35868L7.20327 1.43431Z" fill="#EDFA88"/>
</svg>
