<svg width="16" height="16" viewBox="0 0 16 16" fill="none" xmlns="http://www.w3.org/2000/svg">
<path d="M10.0001 1.33325H4.00008C3.64646 1.33325 3.30732 1.47373 3.05727 1.72378C2.80722 1.97382 2.66675 2.31296 2.66675 2.66659V13.3333C2.66675 13.6869 2.80722 14.026 3.05727 14.2761C3.30732 14.5261 3.64646 14.6666 4.00008 14.6666H12.0001C12.3537 14.6666 12.6928 14.5261 12.9429 14.2761C13.1929 14.026 13.3334 13.6869 13.3334 13.3333V4.66659L10.0001 1.33325Z" stroke="white" stroke-linecap="round" stroke-linejoin="round"/>
<path d="M9.33325 1.33325V3.99992C9.33325 4.35354 9.47373 4.69268 9.72378 4.94273C9.97383 5.19278 10.313 5.33325 10.6666 5.33325H13.3333" stroke="white" stroke-linecap="round" stroke-linejoin="round"/>
<path d="M8 8V12" stroke="white" stroke-linecap="round" stroke-linejoin="round"/>
<path d="M10 10L8 8L6 10" stroke="white" stroke-linecap="round" stroke-linejoin="round"/>
</svg>
